<svg xmlns="http://www.w3.org/2000/svg" viewBox="0 0 700 900"><defs><filter id="s"><feDropShadow dx="0" dy="24" stdDeviation="18" flood-opacity=".2"/></filter></defs><g fill="none" stroke="#4b3a31" stroke-width="10" stroke-linecap="round"><path d="M350 60c-42 0-56 34-56 58 0 22 16 37 39 37"/><path d="M350 155 190 235h320L350 155Z"/></g><g filter="url(#s)"><path fill="#a98861" d="M220 238 300 205l50 48 50-48 80 33 40 540-120 24-18-404-32 46-32-46-18 404-120-24 40-540Z"/><path fill="#8d6d4f" d="m300 205 50 48 50-48 30 13-80 125-80-125 30-13Z"/><circle cx="350" cy="430" r="7" fill="#6d523b"/><circle cx="350" cy="480" r="7" fill="#6d523b"/><circle cx="350" cy="530" r="7" fill="#6d523b"/></g></svg>